<?xml version="1.0" encoding="utf-8"?>
<!-- Generator: Adobe Illustrator 21.0.0, SVG Export Plug-In . SVG Version: 6.00 Build 0)  -->
<svg version="1.1" id="Layer_1" xmlns="http://www.w3.org/2000/svg" xmlns:xlink="http://www.w3.org/1999/xlink" x="0px" y="0px"
	 viewBox="0 0 150 40" style="enable-background:new 0 0 150 40;" xml:space="preserve">
<style type="text/css">
	.st0{fill:#E8E8E8;}
	.st1{fill:#E5C152;}
	.st2{fill:#D7D7D7;}
</style>
<path class="st0" d="M54.8,16.5c0.3,0,0.5,0.2,0.5,0.5v7.8H56c0.6,0,1.3,0,1.9-0.1c0.6,0,1.3-0.1,2-0.2l0.1,1c0,0.2-0.1,0.5-0.4,0.5
	c-0.6,0.1-1.2,0.1-1.8,0.2c-0.8,0-1.7,0.1-2.6,0.1h-1.1c-0.3,0-0.5-0.2-0.5-0.5V17c0-0.3,0.2-0.5,0.5-0.5H54.8z M65.8,30.5h-0.7
	c-0.3,0-0.5-0.2-0.5-0.5v-8c0-0.3-0.2-0.5-0.5-0.5h-1c-0.3,0-0.5,0.2-0.5,0.5v7.3c0,0.3-0.2,0.5-0.5,0.5h-0.7
	c-0.3,0-0.5-0.2-0.5-0.5V15.8c0-0.3,0.2-0.5,0.5-0.5h0.7c0.3,0,0.5,0.2,0.5,0.5v3.8c0,0.3,0.2,0.5,0.5,0.5h1c0.3,0,0.5-0.2,0.5-0.5
	v-4.1c0-0.3,0.2-0.5,0.5-0.5h0.7c0.3,0,0.5,0.2,0.5,0.5V30C66.3,30.2,66.1,30.5,65.8,30.5z"/>
<path class="st1" d="M77.6,18.8c-0.1,0.2-0.2,0.4-0.5,0.7c-0.3,0.3-0.6,0.6-0.9,0.9c-0.5,0.3-1,0.7-1.6,1.2
	c-0.5,0.3-0.9,0.6-1.4,0.9c-0.3,0.2-0.6,0.1-0.8-0.1l-0.9-1.1c0.7-0.5,1.4-0.9,2-1.4c0.6-0.5,1.2-0.9,1.6-1.2
	c0.3-0.3,0.5-0.5,0.7-0.8c0.2-0.2,0.3-0.5,0.4-0.8c0.1-0.3,0.2-0.5,0.2-0.9c0-0.3,0-0.7,0-1v-0.2h-4.3v-1.8h10.5v1.8h-4v0.1
	c0,0.3,0,0.7,0,0.9c0,0.3,0,0.5,0.1,0.7c0.1,0.2,0.2,0.4,0.3,0.6c0.1,0.2,0.3,0.4,0.6,0.7c0.5,0.4,1.1,0.9,1.7,1.3
	c0.6,0.4,1.2,0.8,1.9,1.2l-0.8,1.1c-0.2,0.3-0.5,0.3-0.8,0.1c-0.4-0.3-0.8-0.5-1.2-0.8c-0.6-0.4-1.1-0.8-1.5-1.1
	c-0.3-0.2-0.6-0.5-0.8-0.7C77.9,19.1,77.7,18.9,77.6,18.8L77.6,18.8z M87.7,23.9v7.6c0,0.3-0.3,0.6-0.6,0.6H75.7
	c-0.3,0-0.6-0.3-0.6-0.6v-7.6c0-0.3,0.3-0.6,0.6-0.6h1c0.3,0,0.6,0.3,0.6,0.6v1.3c0,0.3,0.3,0.6,0.6,0.6H85c0.3,0,0.6-0.3,0.6-0.6
	v-1.3c0-0.3,0.3-0.6,0.6-0.6h1C87.4,23.3,87.7,23.6,87.7,23.9z M85.5,29.7v-1.5c0-0.3-0.3-0.6-0.6-0.6h-7.1c-0.3,0-0.6,0.3-0.6,0.6
	v1.5c0,0.3,0.3,0.6,0.6,0.6H85C85.3,30.3,85.5,30.1,85.5,29.7z M85.5,21.8v-9.1c0-0.3,0.3-0.6,0.6-0.6h1c0.3,0,0.6,0.3,0.6,0.6v9.1
	c0,0.3-0.3,0.6-0.6,0.6h-1C85.8,22.4,85.5,22.1,85.5,21.8z"/>
<g>
	<path class="st0" d="M98.2,31.6v-6.4c0-0.3-0.2-0.5-0.5-0.5h-6.9V23h5c0.1-0.5,0.3-1,0.4-1.5c0.1-0.5,0.2-1,0.3-1.5
		c0.1-0.5,0.1-1,0.1-1.4s0-0.8,0-1.1v-0.8h-4.2v-1.7h6.1v1.4c0,1.1-0.1,2.3-0.2,3.4c-0.1,0.9-0.2,1.8-0.4,2.6
		c-0.1,0.3,0.2,0.7,0.5,0.7h3.9c0.3,0,0.5-0.2,0.5-0.4c0.2-1,0.3-1.9,0.4-2.6c0.1-0.9,0.1-1.7,0.1-2.5v-0.8h-4v-1.7h5.9v1.4
		c0,1,0,2.1-0.1,3.2c-0.1,0.9-0.2,1.8-0.4,2.8c-0.1,0.3,0.2,0.7,0.5,0.7h2.3v1.7h-6.9c-0.3,0-0.5,0.2-0.5,0.5v6.4
		c0,0.3-0.2,0.5-0.5,0.5h-0.9C98.4,32.2,98.2,31.9,98.2,31.6z"/>
	<path class="st0" d="M110.2,26.8V15.9c0-0.3,0.2-0.5,0.5-0.5h7.5c0.3,0,0.5,0.2,0.5,0.5v10.8c0,0.3-0.2,0.5-0.5,0.5h-7.5
		C110.5,27.3,110.2,27.1,110.2,26.8z M112.7,25.6h3.6c0.3,0,0.5-0.2,0.5-0.5v-7.5c0-0.3-0.2-0.5-0.5-0.5h-3.6
		c-0.3,0-0.5,0.2-0.5,0.5v7.5C112.2,25.4,112.4,25.6,112.7,25.6z M122.2,31.6V14.3c0-0.3,0.2-0.5,0.5-0.5h0.9c0.3,0,0.5,0.2,0.5,0.5
		v17.4c0,0.3-0.2,0.5-0.5,0.5h-0.9C122.5,32.2,122.2,31.9,122.2,31.6z"/>
	<path class="st0" d="M128.2,27c-0.2-0.3-0.1-0.6,0.2-0.8c0.9-0.5,1.6-1,2.2-1.4c0.7-0.5,1.4-0.9,1.9-1.3s0.9-0.8,1.2-1.1
		c0.3-0.4,0.5-0.7,0.6-1.1c0.1-0.4,0.2-0.7,0.3-1.1c0-0.4,0-0.8,0-1.3v-1.3c0-0.3-0.2-0.5-0.5-0.5h-5.8v-1.7h7.7
		c0.3,0,0.5,0.2,0.5,0.5v3c0,0.6,0,1.1-0.1,1.6c0,0.5-0.1,0.9-0.3,1.4c-0.2,0.4-0.4,0.9-0.7,1.3c-0.3,0.4-0.8,0.9-1.3,1.4
		c-0.6,0.5-1.3,1-2.1,1.6c-0.7,0.5-1.6,1.1-2.6,1.7c-0.2,0.2-0.6,0.1-0.7-0.2L128.2,27z M140.4,31.6V14.3c0-0.3,0.2-0.5,0.5-0.5h0.9
		c0.3,0,0.5,0.2,0.5,0.5v17.4c0,0.3-0.2,0.5-0.5,0.5H141C140.7,32.2,140.4,31.9,140.4,31.6z"/>
</g>
<g>
	<polygon class="st1" points="46.2,34.1 40.2,34.1 28.7,11 34.6,11 	"/>
</g>
<polygon class="st2" points="42.7,22.6 37,11 37,5.8 42.7,5.8 "/>
<g>
	<polygon class="st1" points="36.2,29.7 30.3,29.7 20.9,11 26.9,11 	"/>
</g>
<g>
	<polygon class="st2" points="6.9,21.2 12.8,21.2 18.7,11 12.8,11 	"/>
	<polygon class="st1" points="25.8,25.3 19.9,25.3 12.7,11 18.7,11 	"/>
</g>
</svg>
